<?xml version="1.0" encoding="UTF-8" standalone="no"?>
<!DOCTYPE svg PUBLIC "-//W3C//DTD SVG 1.1//EN"
 "http://www.w3.org/Graphics/SVG/1.1/DTD/svg11.dtd">
<!-- Generated by graphviz version 2.43.0 (0)
 -->
<!-- Title: %3 Pages: 1 -->
<svg width="391pt" height="383pt"
 viewBox="0.00 0.00 390.65 383.07" xmlns="http://www.w3.org/2000/svg" xmlns:xlink="http://www.w3.org/1999/xlink">
<g id="graph0" class="graph" transform="scale(1 1) rotate(0) translate(4 379.07)">
<title>%3</title>
<polygon fill="white" stroke="transparent" points="-4,4 -4,-379.07 386.65,-379.07 386.65,4 -4,4"/>
<!-- 0 -->
<g id="node1" class="node">
<title>0</title>
<polygon fill="aqua" stroke="black" points="134.39,-315.13 80.39,-315.13 80.39,-279.13 134.39,-279.13 134.39,-315.13"/>
<text text-anchor="middle" x="107.39" y="-293.43" font-family="Times,serif" font-size="14.00">0</text>
</g>
<!-- 1 -->
<g id="node2" class="node">
<title>1</title>
<polygon fill="aqua" stroke="black" points="102.67,-67.67 63.37,-67.67 51.22,-105.05 39.08,-67.67 -0.22,-67.67 31.57,-44.57 19.43,-7.19 51.22,-30.29 83.02,-7.19 70.87,-44.57 102.67,-67.67"/>
<text text-anchor="middle" x="51.22" y="-52.42" font-family="Times,serif" font-size="14.00">1</text>
</g>
<!-- 0&#45;&#45;1 -->
<g id="edge1" class="edge">
<title>0&#45;&#45;1</title>
<path fill="none" stroke="red" d="M103.17,-279.02C93.48,-237.42 69.56,-134.78 57.87,-84.63"/>
</g>
<!-- 4 -->
<g id="node5" class="node">
<title>4</title>
<polygon fill="aqua" stroke="black" points="155.29,-60.27 115.99,-60.27 103.84,-97.65 91.7,-60.27 52.4,-60.27 84.19,-37.16 72.05,0.22 103.84,-22.89 135.64,0.22 123.49,-37.16 155.29,-60.27"/>
<text text-anchor="middle" x="103.84" y="-45.01" font-family="Times,serif" font-size="14.00">4</text>
</g>
<!-- 0&#45;&#45;4 -->
<g id="edge5" class="edge">
<title>0&#45;&#45;4</title>
<path fill="none" stroke="red" d="M107.13,-278.86C106.59,-240.66 105.31,-151.25 104.52,-95.8"/>
</g>
<!-- 2 -->
<g id="node3" class="node">
<title>2</title>
<polygon fill="aqua" stroke="black" points="311.67,-337.9 272.37,-337.9 260.22,-375.28 248.08,-337.9 208.78,-337.9 240.57,-314.8 228.43,-277.42 260.22,-300.53 292.02,-277.42 279.87,-314.8 311.67,-337.9"/>
<text text-anchor="middle" x="260.22" y="-322.65" font-family="Times,serif" font-size="14.00">2</text>
</g>
<!-- 2&#45;&#45;2 -->
<g id="edge2" class="edge">
<title>2&#45;&#45;2</title>
<path fill="none" stroke="red" d="M305.16,-333.09C318.79,-332.92 329.44,-330.68 329.44,-326.35 329.44,-320.27 308.37,-318.3 287.58,-320.44"/>
<text text-anchor="middle" x="351.44" y="-321.35" font-family="Times,serif" font-size="20.00">meg</text>
</g>
<!-- 3 -->
<g id="node4" class="node">
<title>3</title>
<polygon fill="aqua" stroke="black" points="382.88,-327.27 343.58,-327.27 331.43,-364.65 319.29,-327.27 279.99,-327.27 311.78,-304.16 299.64,-266.78 331.43,-289.89 363.23,-266.78 351.08,-304.16 382.88,-327.27"/>
<text text-anchor="middle" x="331.43" y="-312.01" font-family="Times,serif" font-size="14.00">3</text>
</g>
<!-- 3&#45;&#45;2 -->
<g id="edge3" class="edge">
<title>3&#45;&#45;2</title>
<path fill="none" stroke="red" d="M286.74,-322.39C286.63,-322.41 286.51,-322.43 286.4,-322.44"/>
</g>
<!-- 4&#45;&#45;1 -->
<g id="edge4" class="edge">
<title>4&#45;&#45;1</title>
<path fill="none" stroke="red" d="M71.1,-46.64C71.01,-46.66 70.93,-46.67 70.84,-46.69"/>
</g>
<!-- 4&#45;&#45;1 -->
<g id="edge6" class="edge">
<title>4&#45;&#45;1</title>
<path fill="none" stroke="red" d="M54.19,-58.84C54.08,-58.8 53.98,-58.76 53.88,-58.72"/>
</g>
</g>
</svg>
