<?xml version="1.0" encoding="UTF-8" standalone="no"?>
<!DOCTYPE svg PUBLIC "-//W3C//DTD SVG 1.1//EN"
 "http://www.w3.org/Graphics/SVG/1.1/DTD/svg11.dtd">
<!-- Generated by graphviz version 2.43.0 (0)
 -->
<!-- Title: %3 Pages: 1 -->
<svg width="362pt" height="168pt"
 viewBox="0.00 0.00 361.65 167.84" xmlns="http://www.w3.org/2000/svg" xmlns:xlink="http://www.w3.org/1999/xlink">
<g id="graph0" class="graph" transform="scale(1 1) rotate(0) translate(4 163.84)">
<title>%3</title>
<polygon fill="white" stroke="transparent" points="-4,4 -4,-163.84 357.65,-163.84 357.65,4 -4,4"/>
<!-- 0 -->
<g id="node1" class="node">
<title>0</title>
<polygon fill="aqua" stroke="black" points="54,-128.65 0,-128.65 0,-92.65 54,-92.65 54,-128.65"/>
<text text-anchor="middle" x="27" y="-106.95" font-family="Times,serif" font-size="14.00">0</text>
</g>
<!-- 1 -->
<g id="node2" class="node">
<title>1</title>
<polygon fill="aqua" stroke="black" points="150.65,-122.67 111.35,-122.67 99.21,-160.05 87.06,-122.67 47.76,-122.67 79.56,-99.57 67.41,-62.19 99.21,-85.29 131,-62.19 118.86,-99.57 150.65,-122.67"/>
<text text-anchor="middle" x="99.21" y="-107.42" font-family="Times,serif" font-size="14.00">1</text>
</g>
<!-- 0&#45;&#45;1 -->
<g id="edge1" class="edge">
<title>0&#45;&#45;1</title>
<path fill="none" stroke="red" d="M54.3,-110.83C57.49,-110.85 60.79,-110.87 64.07,-110.89"/>
</g>
<!-- 4 -->
<g id="node5" class="node">
<title>4</title>
<polygon fill="aqua" stroke="black" points="115.04,-60.27 75.74,-60.27 63.59,-97.65 51.45,-60.27 12.15,-60.27 43.94,-37.16 31.8,0.22 63.59,-22.89 95.39,0.22 83.24,-37.16 115.04,-60.27"/>
<text text-anchor="middle" x="63.59" y="-45.01" font-family="Times,serif" font-size="14.00">4</text>
</g>
<!-- 0&#45;&#45;4 -->
<g id="edge5" class="edge">
<title>0&#45;&#45;4</title>
<path fill="none" stroke="red" d="M37.78,-92.4C42.67,-84.12 48.43,-74.38 53.27,-66.19"/>
</g>
<!-- 2 -->
<g id="node3" class="node">
<title>2</title>
<polygon fill="aqua" stroke="black" points="282.67,-70.9 243.37,-70.9 231.22,-108.28 219.08,-70.9 179.78,-70.9 211.57,-47.8 199.43,-10.42 231.22,-33.53 263.02,-10.42 250.87,-47.8 282.67,-70.9"/>
<text text-anchor="middle" x="231.22" y="-55.65" font-family="Times,serif" font-size="14.00">2</text>
</g>
<!-- 2&#45;&#45;2 -->
<g id="edge2" class="edge">
<title>2&#45;&#45;2</title>
<path fill="none" stroke="red" d="M276.16,-66.09C289.79,-65.92 300.44,-63.68 300.44,-59.35 300.44,-53.27 279.37,-51.3 258.58,-53.44"/>
<text text-anchor="middle" x="322.44" y="-54.35" font-family="Times,serif" font-size="20.00">meg</text>
</g>
<!-- 3 -->
<g id="node4" class="node">
<title>3</title>
<polygon fill="aqua" stroke="black" points="353.88,-60.27 314.58,-60.27 302.43,-97.65 290.29,-60.27 250.99,-60.27 282.78,-37.16 270.64,0.22 302.43,-22.89 334.23,0.22 322.08,-37.16 353.88,-60.27"/>
<text text-anchor="middle" x="302.43" y="-45.01" font-family="Times,serif" font-size="14.00">3</text>
</g>
<!-- 3&#45;&#45;2 -->
<g id="edge3" class="edge">
<title>3&#45;&#45;2</title>
<path fill="none" stroke="red" d="M257.74,-55.39C257.63,-55.41 257.51,-55.43 257.4,-55.44"/>
</g>
<!-- 4&#45;&#45;1 -->
<g id="edge4" class="edge">
<title>4&#45;&#45;1</title>
<path fill="none" stroke="red" d="M70.98,-74.84C71.49,-75.84 72.01,-76.84 72.55,-77.85"/>
</g>
<!-- 4&#45;&#45;1 -->
<g id="edge6" class="edge">
<title>4&#45;&#45;1</title>
<path fill="none" stroke="red" d="M76.89,-60.31C80.32,-65.04 83.94,-70.75 87.29,-76.62"/>
</g>
</g>
</svg>
